<?xml version="1.0"?>
<svg xmlns="http://www.w3.org/2000/svg" viewBox="0 0 64 64" width="512px" height="512px">
  <g>
    <path d="M44,8H20c-3.3,0-6,2.7-6,6v30c0,6.6,5.4,12,12,12h12c6.6,0,12-5.4,12-12V14C50,10.7,47.3,8,44,8z" fill="#FFFFFF"/>
    <path d="M44,6H20c-4.4,0-8,3.6-8,8v30c0,7.7,6.3,14,14,14h12c7.7,0,14-6.3,14-14V14C52,9.6,48.4,6,44,6z" fill="#E6E6E6"/>
    <path d="M32,44c-7.2,0-13-5.8-13-13V14c0-1.7,1.3-3,3-3h20c1.7,0,3,1.3,3,3v17C45,38.2,39.2,44,32,44z" fill="#D8D8D8"/>
    <path d="M24,10h16c1.1,0,2,0.9,2,2v2H22v-2C22,10.9,22.9,10,24,10z" fill="#A46F3E"/>
    <circle cx="32" cy="32" r="10" fill="#6A3311"/>
    <path d="M32,43c-6.1,0-11-4.9-11-11s4.9-11,11-11s11,4.9,11,11S38.1,43,32,43z M32,23c-5,0-9,4-9,9s4,9,9,9s9-4,9-9S37,23,32,23z" fill="#A46F3E"/>
  </g>
</svg>
